<svg width="21" height="20" viewBox="0 0 21 20" fill="none" xmlns="http://www.w3.org/2000/svg">
<path d="M17.3 3.84167C16.4153 2.95668 15.2423 2.41861 13.9944 2.32533C12.7464 2.23204 11.5065 2.58973 10.5 3.33334C9.43972 2.54471 8.12 2.1871 6.80661 2.33254C5.49321 2.47798 4.28371 3.11566 3.42165 4.11716C2.55959 5.11867 2.10902 6.40961 2.16067 7.73002C2.21232 9.05043 2.76235 10.3022 3.70001 11.2333L9.90834 17.4417C9.98581 17.5198 10.078 17.5818 10.1795 17.6241C10.2811 17.6664 10.39 17.6882 10.5 17.6882C10.61 17.6882 10.7189 17.6664 10.8205 17.6241C10.922 17.5818 11.0142 17.5198 11.0917 17.4417L17.3 11.2333C17.7856 10.7481 18.1707 10.172 18.4335 9.53781C18.6963 8.90366 18.8316 8.22395 18.8316 7.53751C18.8316 6.85106 18.6963 6.17135 18.4335 5.5372C18.1707 4.90305 17.7856 4.3269 17.3 3.84167ZM16.125 10.0583L10.5 15.675L4.87501 10.0583C4.37932 9.56059 4.04165 8.92755 3.90436 8.23862C3.76708 7.5497 3.83628 6.83558 4.1033 6.18584C4.37032 5.53609 4.82325 4.97967 5.40529 4.58636C5.98733 4.19305 6.67256 3.98037 7.37501 3.97501C8.31343 3.97731 9.21259 4.35195 9.87501 5.01667C9.95248 5.09478 10.0446 5.15678 10.1462 5.19908C10.2477 5.24139 10.3567 5.26317 10.4667 5.26317C10.5767 5.26317 10.6856 5.24139 10.7872 5.19908C10.8887 5.15678 10.9809 5.09478 11.0583 5.01667C11.7403 4.42574 12.6212 4.11596 13.523 4.15003C14.4247 4.18409 15.2798 4.55946 15.9152 5.20016C16.5506 5.84086 16.9188 6.69904 16.9454 7.601C16.972 8.50296 16.6549 9.38133 16.0583 10.0583H16.125Z" fill="#393280"/>
</svg>
