<svg width="18" height="17" viewBox="0 0 18 17" fill="none" xmlns="http://www.w3.org/2000/svg">
<path d="M14.78 3.26545C14.0279 2.5132 13.0309 2.05585 11.9702 1.97655C10.9094 1.89726 9.85549 2.20129 8.99997 2.83336C8.09873 2.16302 6.97697 1.85906 5.86058 1.98268C4.7442 2.10631 3.71612 2.64833 2.98337 3.49961C2.25062 4.35089 1.86764 5.44819 1.91154 6.57054C1.95544 7.69289 2.42297 8.75692 3.21997 9.54836L8.49705 14.8254C8.5629 14.8918 8.64125 14.9445 8.72756 14.9805C8.81388 15.0165 8.90646 15.035 8.99997 15.035C9.09348 15.035 9.18606 15.0165 9.27238 14.9805C9.3587 14.9445 9.43704 14.8918 9.50289 14.8254L14.78 9.54836C15.1927 9.13592 15.5201 8.64619 15.7435 8.10716C15.9668 7.56814 16.0818 6.99038 16.0818 6.40691C16.0818 5.82343 15.9668 5.24567 15.7435 4.70665C15.5201 4.16762 15.1927 3.67789 14.78 3.26545ZM13.7812 8.54961L8.99997 13.3238L4.21872 8.54961C3.79739 8.12652 3.51037 7.58844 3.39368 7.00285C3.27698 6.41727 3.33581 5.81026 3.56277 5.25798C3.78973 4.7057 4.17473 4.23274 4.66947 3.89843C5.1642 3.56412 5.74664 3.38334 6.34372 3.37878C7.14138 3.38073 7.90567 3.69919 8.46872 4.2642C8.53457 4.33059 8.61291 4.38328 8.69923 4.41925C8.78555 4.45521 8.87813 4.47372 8.97164 4.47372C9.06515 4.47372 9.15773 4.45521 9.24405 4.41925C9.33036 4.38328 9.40871 4.33059 9.47455 4.2642C10.0542 3.76191 10.803 3.49859 11.5695 3.52755C12.3359 3.5565 13.0628 3.87557 13.6029 4.42016C14.1429 4.96476 14.456 5.69421 14.4786 6.46087C14.5012 7.22754 14.2316 7.97416 13.7246 8.54961H13.7812Z" fill="#4F4F4F"/>
</svg>
