<svg width="19" height="18" viewBox="0 0 19 18" fill="none" xmlns="http://www.w3.org/2000/svg">
<path d="M7.43752 0C5.66001 0 3.88011 0.67638 2.52806 2.02898C-0.176021 4.73418 -0.176021 9.13926 2.52806 11.8445C5.06173 14.3792 9.08614 14.5388 11.8081 12.3236H11.8156L17.2714 17.7891C17.4064 17.9242 17.5894 18 17.7803 18C17.9712 18 18.1542 17.9242 18.2892 17.7891C18.4242 17.6541 18.5 17.471 18.5 17.28C18.5 17.0891 18.4242 16.9059 18.2892 16.7709L12.8259 11.3054C15.0333 8.58238 14.8781 4.56116 12.347 2.02898C10.9949 0.67638 9.21503 0 7.43752 0ZM7.43752 1.43002C8.84468 1.43002 10.2517 1.96929 11.3292 3.04721C13.4692 5.18812 13.4844 8.62983 11.3741 10.7888C11.3692 10.7938 11.364 10.7988 11.3591 10.8036C11.3382 10.82 11.3182 10.8375 11.2992 10.856C9.14238 12.9852 5.69193 12.973 3.54588 10.8261C1.39091 8.67023 1.39091 5.20294 3.54588 3.04708C4.62336 1.96915 6.03036 1.43002 7.43752 1.43002Z" fill="white"/>
</svg>
